<svg width="100" height="100" viewBox="0 0 1700 1400" fill="none" xmlns="http://www.w3.org/2000/svg">
<path d="M621.059 0.716278L0 1076.42H515.699L515.13 1073.29C514.513 1069.69 513.944 1066.08 513.47 1062.43V1062.14V1061.1L513.233 1059.91L512.474 1054.22L512.094 1051.23C511.572 1047.58 511.193 1044.45 510.908 1041.22C510.624 1038 510.244 1035.2 509.912 1032.07C509.912 1029.89 509.532 1027.32 509.343 1025.14V1022.96V1021.2C508.868 1016.22 508.441 1011.05 508.252 1006.07C507.587 992.694 507.493 978.7 507.777 964.421C507.777 959.677 508.157 954.933 508.346 950.569L508.679 943.691C508.679 940.797 508.963 938.235 509.248 935.816C509.248 934.345 509.248 932.97 509.627 931.594C510.007 930.218 509.912 927.799 510.102 925.522L511.383 913.805V913.425V913.14L512.094 907.543C512.568 903.748 513.138 899.431 513.849 894.924L514.893 887.808C515.13 886.243 515.415 884.772 515.699 883.397V882.827V882.448V881.926V880.977H338.518L621.059 391.654L711.192 547.915C741.983 522.78 775.362 500.994 810.764 482.924C822.671 476.757 834.483 471.112 847.576 465.609L858.534 460.866H858.819H859.104C863.848 459.016 868.876 457.071 873.667 455.41L881.779 452.469L621.059 0.716278Z" fill="#285BD4"/>
<path d="M1582.11 880.977C1650.85 1486.95 869.161 1751.04 588.897 1184.58C371.204 669.83 1014.04 207.783 1433.48 615.751L1279.36 747.961C1063.09 533.256 706.828 722.06 761.762 1043.41C813.611 1335.29 1236.9 1420.97 1358.39 1076.61H1037.47L918.876 881.167L1582.11 880.977Z" fill="#285BD4"/>
<path d="M1257.11 726.946C1249.28 720.494 1241.17 714.328 1232.87 708.682C1241.26 714.342 1249.35 720.438 1257.11 726.946Z" fill="#285BD4"/>
<path d="M1232.63 708.682C1240.93 714.328 1249.04 720.494 1256.87 726.946C1249.12 720.438 1241.02 714.342 1232.63 708.682Z" fill="white"/>
</svg>

